<?xml version="1.0" encoding="UTF-8"?>
<svg version="1.1" xmlns="http://www.w3.org/2000/svg" width="516" height="459">
<path d="M0 0 C170.28 0 340.56 0 516 0 C516 151.47 516 302.94 516 459 C345.72 459 175.44 459 0 459 C0 307.53 0 156.06 0 0 Z " fill="#011F3F" transform="translate(0,0)"/>
<path d="M0 0 C43.89 0 87.78 0 133 0 C133 21.12 133 42.24 133 64 C115.84 64 98.68 64 81 64 C82.98 61.03 84.96 58.06 87 55 C88.08256072 52.36576892 89.11416037 49.70673221 90 47 C90.66 47 91.32 47 92 47 C91.97300222 34.85100052 91.58410382 24.2913806 83 14.78515625 C76.76308888 9.00892606 71.44301704 7.50906948 63 7.6953125 C56.61283158 8.34400929 52.59920919 11.08461596 48.1875 15.625 C40.86797931 24.76604524 41.24830312 35.83475794 42 47 C42.37798073 50.28843238 42.93015991 52.8467871 44 56 C44.99 56.33 45.98 56.66 47 57 C47.33 57.99 47.66 58.98 48 60 C48.98020375 61.0194119 49.97803008 62.02246356 51 63 C51 63.33 51 63.66 51 64 C34.17 64 17.34 64 0 64 C0 42.88 0 21.76 0 0 Z " fill="#FAFAFB" transform="translate(187,291)"/>
<path d="M0 0 C3.3 0 6.6 0 10 0 C10.7945261 2.18646304 11.5854858 4.37422221 12.375 6.5625 C12.81585938 7.78066406 13.25671875 8.99882813 13.7109375 10.25390625 C14.93538575 13.81222706 15.98321739 17.37771195 17 21 C17.85771003 23.81795023 18.74070137 26.62779533 19.625 29.4375 C19.96917969 30.53481445 19.96917969 30.53481445 20.3203125 31.65429688 C20.87941811 33.43644602 21.43959634 35.2182586 22 37 C25.39693872 29.7060656 28.33925329 22.47034674 29.9375 14.5625 C30.997991 9.43226151 32.96427206 4.81788946 35 0 C38.63 0 42.26 0 46 0 C46.28927934 4.90697781 46.57390102 9.81419739 46.85449219 14.72167969 C46.95026505 16.38581357 47.04723819 18.04987888 47.14550781 19.71386719 C47.70200228 29.1515591 48.16916975 38.54059134 48 48 C45.69 48 43.38 48 41 48 C40.01 29.19 40.01 29.19 39 10 C37.205625 15.5275 35.41125 21.055 33.5625 26.75 C32.99732666 28.48862305 32.43215332 30.22724609 31.84985352 32.01855469 C31.40109824 33.40296038 30.95244244 34.78739832 30.50390625 36.171875 C30.27151245 36.88553223 30.03911865 37.59918945 29.79968262 38.33447266 C28.76115495 41.5439561 27.81874713 44.72501148 27 48 C24.03 48 21.06 48 18 48 C17.71334473 47.00371582 17.71334473 47.00371582 17.42089844 45.98730469 C12.85666209 29.92628983 12.85666209 29.92628983 7.62890625 14.07421875 C7 12 7 12 7 9 C6.34 9 5.68 9 5 9 C5.01160156 10.13953125 5.02320313 11.2790625 5.03515625 12.453125 C5.11623943 24.335612 4.69990346 36.13913593 4 48 C1.69 48 -0.62 48 -3 48 C-2.73570482 43.09265023 -2.46908055 38.1854341 -2.20043945 33.27832031 C-2.10965379 31.61429133 -2.01946835 29.95022947 -1.92993164 28.28613281 C-1.42138061 18.8424254 -0.84605995 9.4209919 0 0 Z " fill="#E6E9EC" transform="translate(166,118)"/>
<path d="M0 0 C3.63 0 7.26 0 11 0 C12.24661047 3.85897582 13.49166865 7.71844879 14.73535156 11.57836914 C15.15778687 12.88872476 15.58063052 14.19894882 16.00390625 15.5090332 C16.61568387 17.40280238 17.22582343 19.29710047 17.8359375 21.19140625 C18.20251465 22.32779541 18.5690918 23.46418457 18.94677734 24.63500977 C22 34.38989337 22 34.38989337 22 38 C22.66 38 23.32 38 24 38 C24.103125 37.360625 24.20625 36.72125 24.3125 36.0625 C25.06834081 32.69557277 26.13175639 29.5200755 27.24609375 26.2578125 C27.88154174 24.35476101 28.44881609 22.4291437 29 20.5 C29.76701841 17.81543557 30.59776804 15.20152848 31.5 12.5625 C32.90309994 8.4173012 33.99355041 4.25805595 35 0 C38.96 0 42.92 0 47 0 C47.79495632 16.0126916 48.13961475 31.96793031 48 48 C46.02 48 44.04 48 42 48 C40.6826233 40.03350151 40.88910574 32.04805625 40.9375 24 C40.94252424 22.54297029 40.94708551 21.0859389 40.95117188 19.62890625 C40.96210612 16.0859023 40.97932 12.54296203 41 9 C40.34 9 39.68 9 39 9 C38.66355469 10.74603516 38.66355469 10.74603516 38.3203125 12.52734375 C36.72593791 19.70202938 34.23520008 26.61247451 31.875 33.5625 C31.40192249 34.96665502 30.92926287 36.3709509 30.45703125 37.77539062 C29.30949994 41.18523097 28.15632848 44.59313137 27 48 C24.36 48 21.72 48 19 48 C16.03208771 39.32359259 13.23876801 30.6245006 10.70043945 21.81274414 C9.55499089 17.84201456 8.33613495 13.91078769 7 10 C5.71954301 22.65732668 4.6328477 35.29308442 4 48 C2.02 48 0.04 48 -2 48 C-2.18389324 37.71730289 -1.6058328 27.50849766 -1 17.25 C-0.90333304 15.57033047 -0.80697667 13.89064304 -0.7109375 12.2109375 C-0.47753311 8.14041003 -0.23994594 4.07014688 0 0 Z " fill="#E8EBEE" transform="translate(149,175)"/>
<path d="M0 0 C4.48191676 2.4069553 7.35268541 4.81655246 9.6875 9.375 C10.95660008 15.72050038 11.82690754 22.87663254 8.75 28.8125 C5.20770598 33.28697666 1.15161703 36.36603946 -4.640625 37.05078125 C-9.24793811 37.20382137 -13.06213049 36.9686304 -17.05078125 34.328125 C-21.72027574 29.83243304 -23.90786886 23.96036327 -24.0625 17.5625 C-23.64959854 11.10713807 -22.55953995 7.41612429 -17.6875 3 C-12.111781 -1.72112282 -6.9828688 -2.2874915 0 0 Z " fill="#ECEEF0" transform="translate(243.625,130.1875)"/>
<path d="M0 0 C42.57 0 85.14 0 129 0 C129 20.79 129 41.58 129 63 C127.35 63 125.7 63 124 63 C124 43.53 124 24.06 124 4 C83.08 4 42.16 4 0 4 C0 2.68 0 1.36 0 0 Z " fill="#F2F3F5" transform="translate(202,281)"/>
<path d="M0 0 C3.33182626 2.14717692 4.7977383 3.35617845 6.8125 6.8125 C7.30690483 10.92699226 7.18821037 14.98864529 7.0625 19.125 C7.04445312 20.24712891 7.02640625 21.36925781 7.0078125 22.52539062 C6.96077856 25.28863447 6.89506317 28.05012698 6.8125 30.8125 C7.8025 30.8125 8.7925 30.8125 9.8125 30.8125 C9.8125 32.4625 9.8125 34.1125 9.8125 35.8125 C3.25083017 36.06487192 3.25083017 36.06487192 0.75 34.625 C0.110625 34.356875 -0.52875 34.08875 -1.1875 33.8125 C-2.54875 34.493125 -2.54875 34.493125 -3.9375 35.1875 C-8.16140327 37.29945164 -10.49946917 37.190567 -15.1875 36.8125 C-18.21046117 35.75037851 -20.14003876 34.26606925 -22.1875 31.8125 C-22.96631704 27.73516374 -22.5703333 23.88921866 -21.1875 20 C-17.53080043 16.00048484 -13.64856627 14.01650944 -8.21875 13.56640625 C-5.5290884 13.56294019 -2.87083644 13.63492626 -0.1875 13.8125 C-0.45143501 10.38019552 -0.45143501 10.38019552 -1.1875 6.8125 C-4.54077639 4.57698241 -5.09493657 4.63966472 -8.875 5.1875 C-9.68324219 5.29835937 -10.49148437 5.40921875 -11.32421875 5.5234375 C-12.24654297 5.66652344 -12.24654297 5.66652344 -13.1875 5.8125 C-13.5175 7.4625 -13.8475 9.1125 -14.1875 10.8125 C-16.1675 10.8125 -18.1475 10.8125 -20.1875 10.8125 C-21.1875 7.8125 -21.1875 7.8125 -20.25 5.375 C-15.10097475 -1.0222738 -7.69045971 -2.86507322 0 0 Z " fill="#E8EAED" transform="translate(226.1875,187.1875)"/>
<path d="M0 0 C3.55810461 2.00660551 5.87930768 3.60077074 7.8125 7.3125 C8.3075 13.2525 8.3075 13.2525 8.8125 19.3125 C0.2325 19.3125 -8.3475 19.3125 -17.1875 19.3125 C-15.63449285 26.13009597 -15.63449285 26.13009597 -11.1875 30.3125 C-6.92606568 30.93234499 -4.94361678 30.80561964 -1.3125 28.4375 C0.85202847 26.4969662 0.85202847 26.4969662 1.8125 24.3125 C4.25 24.6875 4.25 24.6875 6.8125 25.3125 C7.1425 25.9725 7.4725 26.6325 7.8125 27.3125 C6.03486901 31.81583185 3.30827709 33.66597212 -0.9375 35.5859375 C-6.08670775 37.2487025 -10.53362132 36.92504766 -15.5625 35.0625 C-18.14812593 33.33874938 -19.63439659 31.98728921 -21.1875 29.3125 C-21.1875 28.6525 -21.1875 27.9925 -21.1875 27.3125 C-22.1775 26.9825 -23.1675 26.6525 -24.1875 26.3125 C-24.2419452 24.10444476 -24.28049283 21.89599446 -24.3125 19.6875 C-24.33570313 18.45773438 -24.35890625 17.22796875 -24.3828125 15.9609375 C-24.06170092 9.9625732 -22.45657076 5.58157076 -18.1875 1.3125 C-11.89046965 -2.13304491 -6.59439367 -3.00411267 0 0 Z " fill="#EBEEF0" transform="translate(306.1875,187.6875)"/>
<path d="M0 0 C2.60697653 1.46471637 4.80919842 2.99279217 6.92578125 5.109375 C6.92578125 6.429375 6.92578125 7.749375 6.92578125 9.109375 C7.58578125 9.109375 8.24578125 9.109375 8.92578125 9.109375 C8.92578125 12.409375 8.92578125 15.709375 8.92578125 19.109375 C0.34578125 19.109375 -8.23421875 19.109375 -17.07421875 19.109375 C-16.77244019 25.7545841 -16.77244019 25.7545841 -13.94921875 28.546875 C-10.33619952 30.51047241 -8.13426413 30.62610805 -4.07421875 30.109375 C-0.88918305 28.34922369 -0.24124903 27.61046584 0.92578125 24.109375 C3.86328125 24.484375 3.86328125 24.484375 6.92578125 25.109375 C7.25578125 25.769375 7.58578125 26.429375 7.92578125 27.109375 C1.70071997 35.10996922 1.70071997 35.10996922 -3.07421875 36.109375 C-8.77231405 36.68130278 -13.24977966 36.50841163 -18.07421875 33.109375 C-23.06393509 27.38945627 -24.44162737 22.59059835 -24.3515625 15.03515625 C-23.92392976 10.523932 -22.62279369 6.85819624 -20.07421875 3.109375 C-13.80129553 -2.01137865 -7.52608525 -3.23153943 0 0 Z " fill="#EDEFF1" transform="translate(322.07421875,130.890625)"/>
<path d="M0 0 C40.92 0 81.84 0 124 0 C124 20.13 124 40.26 124 61 C122.68 61 121.36 61 120 61 C120 42.19 120 23.38 120 4 C80.4 4 40.8 4 0 4 C0 2.68 0 1.36 0 0 Z " fill="#F7F8F9" transform="translate(215,272)"/>
<path d="M0 0 C2.31 0 4.62 0 7 0 C7.37125 1.155 7.7425 2.31 8.125 3.5 C9.18348099 6.70612356 10.32159502 9.86957724 11.53515625 13.01953125 C11.80634277 13.7259375 12.0775293 14.43234375 12.35693359 15.16015625 C12.90496355 16.5803303 13.45856473 17.99836866 14.01806641 19.4140625 C15.34952755 22.87065981 16 25.24167997 16 29 C16.66 29 17.32 29 18 29 C18.38285156 27.09927734 18.38285156 27.09927734 18.7734375 25.16015625 C19.97331492 19.76070784 21.74923418 14.63398134 23.625 9.4375 C24.11226563 8.06754883 24.11226563 8.06754883 24.609375 6.66992188 C25.40153629 4.44488059 26.1984659 2.22167825 27 0 C29.31 0 31.62 0 34 0 C33.54177532 3.46941546 33.10868317 6.67395049 32 10 C31.01 10.495 31.01 10.495 30 11 C29.1723925 13.88298438 28.5902526 16.79120143 27.9765625 19.7265625 C27.03725966 22.87510561 25.71502304 25.34610465 24.02539062 28.14794922 C21.89314843 31.99918477 20.62893458 36.23988779 19.20117188 40.390625 C16.75553385 47.2410063 16.75553385 47.2410063 14 49 C11.73828125 49.29296875 11.73828125 49.29296875 9.3125 49.1875 C8.10013672 49.14689453 8.10013672 49.14689453 6.86328125 49.10546875 C6.24839844 49.07066406 5.63351562 49.03585938 5 49 C5 47.35 5 45.7 5 44 C7.31 44 9.62 44 12 44 C12.25228915 42.4619481 12.47569218 40.91914731 12.6875 39.375 C12.81511719 38.51648438 12.94273437 37.65796875 13.07421875 36.7734375 C12.97833283 33.19033195 11.68688144 31.15323022 10 28 C8.93522362 25.25852279 8.00477471 22.47312671 7.0625 19.6875 C5.41285575 14.89364 3.73706833 10.17748204 1.625 5.5625 C0 2 0 2 0 0 Z " fill="#E7EAED" transform="translate(333,130)"/>
<path d="M0 0 C3.15852017 1.43881987 5.1312935 3.05609498 7 6 C7.87290522 11.14576678 7.66067312 16.18848087 7.4375 21.375 C7.40235235 22.79289199 7.37041934 24.21086753 7.34179688 25.62890625 C7.26501255 29.08768539 7.14442559 32.54330845 7 36 C5.02 36 3.04 36 1 36 C0.9906543 35.16750732 0.98130859 34.33501465 0.97167969 33.47729492 C0.92763634 30.38497711 0.86601225 27.29365054 0.79248047 24.2019043 C0.75041351 22.20710869 0.72862136 20.21191918 0.70703125 18.21679688 C0.67480469 16.96318359 0.64257812 15.70957031 0.609375 14.41796875 C0.58842773 13.26063232 0.56748047 12.1032959 0.54589844 10.91088867 C0.25998615 7.92545409 0.25998615 7.92545409 -1.81933594 6.0949707 C-5.18352754 4.40571865 -7.43525102 5.04515652 -11 6 C-13.8015279 8.1566621 -14.872027 9.33403676 -15.54589844 12.84082031 C-15.5668457 13.90913086 -15.58779297 14.97744141 -15.609375 16.078125 C-15.64160156 17.23828125 -15.67382812 18.3984375 -15.70703125 19.59375 C-15.72121094 20.8003125 -15.73539062 22.006875 -15.75 23.25 C-15.77964844 24.47203125 -15.80929687 25.6940625 -15.83984375 26.953125 C-15.91052402 29.96881644 -15.96323175 32.9837355 -16 36 C-18.31 36 -20.62 36 -23 36 C-23 24.12 -23 12.24 -23 0 C-21.02 0 -19.04 0 -17 0 C-17 1.32 -17 2.64 -17 4 C-16.52691406 3.62746094 -16.05382812 3.25492188 -15.56640625 2.87109375 C-10.13762919 -1.01265124 -6.41234455 -1.99090224 0 0 Z " fill="#E5E8EB" transform="translate(284,130)"/>
<path d="M0 0 C3.14329747 1.66060999 5.17378526 2.92689655 7.3125 5.75 C7.3125 7.07 7.3125 8.39 7.3125 9.75 C5.0025 10.08 2.6925 10.41 0.3125 10.75 C0.02375 9.945625 -0.265 9.14125 -0.5625 8.3125 C-1.42012568 5.6173532 -1.42012568 5.6173532 -3.6875 4.75 C-7.73892119 4.49139865 -9.23087669 4.44558446 -12.6875 6.75 C-12.93780977 9.33380177 -12.93780977 9.33380177 -12.6875 11.75 C-9.72293926 13.04699532 -6.98465266 13.90870746 -3.8125 14.625 C0.42224619 15.62330519 3.63443818 17.45121136 7.3125 19.75 C8.09278239 28.67989844 8.09278239 28.67989844 5.125 32.75 C-0.37908288 36.66401449 -5.02331023 37.49177377 -11.6875 36.75 C-16.8345423 35.0019479 -19.2200252 32.58625061 -21.6875 27.75 C-21.4375 25.375 -21.4375 25.375 -20.6875 23.75 C-18.7075 23.75 -16.7275 23.75 -14.6875 23.75 C-14.39875 24.719375 -14.11 25.68875 -13.8125 26.6875 C-13.04535318 29.85664203 -13.04535318 29.85664203 -10.6875 30.75 C-7.08717833 31.01669049 -4.52775365 31.15935434 -1.25 29.5625 C0.79270399 27.19296337 0.43692972 25.7910624 0.3125 22.75 C-0.32816406 22.56824219 -0.96882813 22.38648438 -1.62890625 22.19921875 C-16.35080097 17.92087379 -16.35080097 17.92087379 -19.6875 13.75 C-20.43294217 10.66421614 -20.37182378 7.84575042 -19.6875 4.75 C-14.76892587 -1.83903327 -7.3477489 -2.49076234 0 0 Z " fill="#EBEDF0" transform="translate(365.6875,187.25)"/>
<path d="M0 0 C1.98 0 3.96 0 6 0 C6 1.98 6 3.96 6 6 C7.65 6 9.3 6 11 6 C12.125 9.75 12.125 9.75 11 12 C7.7 12 4.4 12 1 12 C1 13.32 1 14.64 1 16 C1.77085937 16.40992188 2.54171875 16.81984375 3.3359375 17.2421875 C4.33882812 17.78101563 5.34171875 18.31984375 6.375 18.875 C7.37273437 19.40867187 8.37046875 19.94234375 9.3984375 20.4921875 C12 22 12 22 14 24 C14.45226189 28.59799589 14.62392781 30.91390344 12.3125 34.9375 C9.78804723 37.18903896 8.32957907 37.72253508 5 38 C5 39.98 5 41.96 5 44 C3.35 44 1.7 44 0 44 C0 42.35 0 40.7 0 39 C-2.31 38.67 -4.62 38.34 -7 38 C-7.93423645 34.98968256 -8.04449911 34.13349732 -7 31 C-3.37 31.33 0.26 31.66 4 32 C4.66 30.35 5.32 28.7 6 27 C5.175 26.773125 4.35 26.54625 3.5 26.3125 C-4.89757027 23.16341115 -4.89757027 23.16341115 -8 20 C-9.01585867 16.80149642 -8.89632816 14.21863295 -8 11 C-5.6875 7.9375 -5.6875 7.9375 -3 6 C-2.01 6 -1.02 6 0 6 C0 4.02 0 2.04 0 0 Z " fill="#F0F2F4" transform="translate(250,306)"/>
<path d="M0 0 C3.2063853 2.66061759 5.75543469 4.84301417 6.23828125 9.1015625 C6.41488706 15.10616017 5.84100821 20.16317485 2 25 C-1.68182684 27.41329826 -4.63375653 27.28285733 -8.87109375 26.640625 C-11 26 -11 26 -13.5625 23.75 C-16.19124168 18.79397785 -15.74968773 12.39640086 -15 7 C-11.50913422 0.1621228 -7.75108039 -2.56831434 0 0 Z " fill="#0A2846" transform="translate(242,135)"/>
<path d="M0 0 C1.98 0 3.96 0 6 0 C6 2.64 6 5.28 6 8 C8.31 8 10.62 8 13 8 C13 9.65 13 11.3 13 13 C10.69 13 8.38 13 6 13 C6 21.58 6 30.16 6 39 C8.31 39 10.62 39 13 39 C13 40.65 13 42.3 13 44 C11.20866022 44.05391993 9.41686101 44.09275571 7.625 44.125 C6.62726563 44.14820313 5.62953125 44.17140625 4.6015625 44.1953125 C2 44 2 44 0 42 C-0.22705078 39.11083984 -0.22705078 39.11083984 -0.1953125 35.4609375 C-0.18886719 34.15898437 -0.18242187 32.85703125 -0.17578125 31.515625 C-0.15906929 30.13541405 -0.14213939 28.75520571 -0.125 27.375 C-0.11497006 25.98698548 -0.10584423 24.59896411 -0.09765625 23.2109375 C-0.07401863 19.80711974 -0.04106867 16.40364494 0 13 C-1.98 13 -3.96 13 -6 13 C-6 11.35 -6 9.7 -6 8 C-4.02 8 -2.04 8 0 8 C0 5.36 0 2.72 0 0 Z " fill="#EEF0F2" transform="translate(266,179)"/>
<path d="M0 0 C1.98 0 3.96 0 6 0 C6 2.64 6 5.28 6 8 C8.31 8 10.62 8 13 8 C13 9.65 13 11.3 13 13 C10.69 13 8.38 13 6 13 C6 21.58 6 30.16 6 39 C8.31 39 10.62 39 13 39 C13 40.65 13 42.3 13 44 C11.20866022 44.05391993 9.41686101 44.09275571 7.625 44.125 C6.62726563 44.14820313 5.62953125 44.17140625 4.6015625 44.1953125 C2 44 2 44 0 42 C-0.22705078 39.11083984 -0.22705078 39.11083984 -0.1953125 35.4609375 C-0.18886719 34.15898437 -0.18242187 32.85703125 -0.17578125 31.515625 C-0.15906929 30.13541405 -0.14213939 28.75520571 -0.125 27.375 C-0.11497006 25.98698548 -0.10584423 24.59896411 -0.09765625 23.2109375 C-0.07401863 19.80711974 -0.04106867 16.40364494 0 13 C-1.98 13 -3.96 13 -6 13 C-6 11.35 -6 9.7 -6 8 C-4.02 8 -2.04 8 0 8 C0 5.36 0 2.72 0 0 Z " fill="#EDF0F2" transform="translate(244,179)"/>
<path d="M0 0 C0 1.65 0 3.3 0 5 C-3 6 -3 6 -6.5 6.375 C-9.90364363 6.7177038 -9.90364363 6.7177038 -11.875 8.375 C-14.07420868 11.55163476 -14.17172702 14.58322725 -14.31640625 18.32421875 C-14.35830078 19.35224609 -14.40019531 20.38027344 -14.44335938 21.43945312 C-14.48267578 22.51130859 -14.52199219 23.58316406 -14.5625 24.6875 C-14.60568359 25.77095703 -14.64886719 26.85441406 -14.69335938 27.97070312 C-14.79946838 30.64700791 -14.90152361 33.32340526 -15 36 C-16.98 36 -18.96 36 -21 36 C-21 24.12 -21 12.24 -21 0 C-19.02 0 -17.04 0 -15 0 C-15 1.32 -15 2.64 -15 4 C-14.34 4 -13.68 4 -13 4 C-13 3.34 -13 2.68 -13 2 C-8.22169095 -0.91360308 -5.44893869 -1.19876651 0 0 Z " fill="#E8EBEE" transform="translate(343,187)"/>
<path d="M0 0 C0.30615 3.90341251 0.33014743 6.36721742 -1.5 9.875 C-5.10747501 12.94135376 -7.27075769 13 -12 13 C-14.5 11.9375 -14.5 11.9375 -16 10 C-16.625 7.0625 -16.625 7.0625 -16 4 C-11.21572124 -0.78427876 -6.33189482 -0.45049054 0 0 Z " fill="#0C2948" transform="translate(226,206)"/>
<path d="M0 0 C2.375 1.6875 2.375 1.6875 4 4 C4.33 5.98 4.66 7.96 5 10 C-1.27 10 -7.54 10 -14 10 C-14 5 -14 5 -11.625 2.25 C-7.38335852 -1.3856927 -5.4610494 -1.22402831 0 0 Z " fill="#102D4B" transform="translate(303,192)"/>
<path d="M0 0 C2.375 1.6875 2.375 1.6875 4 4 C4.33 5.98 4.66 7.96 5 10 C-1.27 10 -7.54 10 -14 10 C-13 3 -13 3 -10.375 0.5 C-6.26199631 -1.32800164 -4.29077606 -1.27134106 0 0 Z " fill="#0F2C4A" transform="translate(319,135)"/>
<path d="M0 0 C1.32 0 2.64 0 4 0 C4 4.62 4 9.24 4 14 C-4.25 14 -12.5 14 -21 14 C-21 12.68 -21 11.36 -21 10 C-14.07 10 -7.14 10 0 10 C0 6.7 0 3.4 0 0 Z " fill="#102D4B" transform="translate(307,331)"/>
<path d="M0 0 C1.32 0 2.64 0 4 0 C4 3.3 4 6.6 4 10 C10.93 10 17.86 10 25 10 C25 11.32 25 12.64 25 14 C16.75 14 8.5 14 0 14 C0 9.38 0 4.76 0 0 Z " fill="#112E4C" transform="translate(197,331)"/>
<path d="M0 0 C8.25 0 16.5 0 25 0 C25 4.62 25 9.24 25 14 C23.68 14 22.36 14 21 14 C21 10.7 21 7.4 21 4 C14.07 4 7.14 4 0 4 C0 2.68 0 1.36 0 0 Z " fill="#15314E" transform="translate(286,301)"/>
<path d="M0 0 C8.25 0 16.5 0 25 0 C25 1.32 25 2.64 25 4 C18.07 4 11.14 4 4 4 C4 7.3 4 10.6 4 14 C2.68 14 1.36 14 0 14 C0 9.38 0 4.76 0 0 Z " fill="#112E4C" transform="translate(197,301)"/>
<path d="M0 0 C0.99 0 1.98 0 3 0 C3.17102725 4.37484059 3.33598883 8.74989121 3.5 13.125 C3.54769531 14.34316406 3.59539062 15.56132812 3.64453125 16.81640625 C3.9557067 25.21814336 4.05819087 33.59303609 4 42 C3.67 42 3.34 42 3 42 C1.6826233 34.03350151 1.88910574 26.04805625 1.9375 18 C1.94252424 16.54297029 1.94708551 15.0859389 1.95117188 13.62890625 C1.96210612 10.0859023 1.97932 6.54296203 2 3 C1.34 3 0.68 3 0 3 C0 2.01 0 1.02 0 0 Z " fill="#A9B4BE" transform="translate(188,181)"/>
<path d="M0 0 C0.66 0 1.32 0 2 0 C2 3.96 2 7.92 2 12 C1.67 12 1.34 12 1 12 C0.67 10.35 0.34 8.7 0 7 C-1.65 11.95 -3.3 16.9 -5 22 C-5.99827705 18.00689181 -6.04916802 17.28333721 -4.78515625 13.671875 C-4.51123047 12.87265625 -4.23730469 12.0734375 -3.95507812 11.25 C-3.51325195 10.0125 -3.51325195 10.0125 -3.0625 8.75 C-2.77181641 7.90953125 -2.48113281 7.0690625 -2.18164062 6.203125 C-1.46378767 4.13194269 -0.73633881 2.06466738 0 0 Z " fill="#4A6077" transform="translate(188,184)"/>
<path d="M0 0 C0.99 0 1.98 0 3 0 C3 0.99 3 1.98 3 3 C2.34 3 1.68 3 1 3 C1 9.27 1 15.54 1 22 C0.67 22 0.34 22 0 22 C0 14.74 0 7.48 0 0 Z " fill="#C4CBD2" transform="translate(170,124)"/>
<path d="M0 0 C0.66 0.33 1.32 0.66 2 1 C1.195625 1.66 0.39125 2.32 -0.4375 3 C-3.75148924 6.87979228 -3.74577025 9.00014825 -4 14 C-4.33 14 -4.66 14 -5 14 C-5.78774617 5.96498906 -5.78774617 5.96498906 -2.5 1.9375 C-1.2625 0.9784375 -1.2625 0.9784375 0 0 Z " fill="#B8C1CA" transform="translate(247,312)"/>
<path d="M0 0 C2.31 0 4.62 0 7 0 C7.33 1.65 7.66 3.3 8 5 C7.34 4.01 6.68 3.02 6 2 C5.01 2 4.02 2 3 2 C2.01 3.485 2.01 3.485 1 5 C0.67 3.35 0.34 1.7 0 0 Z " fill="#B6BFC8" transform="translate(333,130)"/>
</svg>
